<?xml version="1.0" encoding="utf-8"?>
<!-- Generator: Adobe Illustrator 21.0.2, SVG Export Plug-In . SVG Version: 6.00 Build 0)  -->
<svg version="1.1" id="globe" xmlns="http://www.w3.org/2000/svg" xmlns:xlink="http://www.w3.org/1999/xlink" x="0px" y="0px"
	 viewBox="0 0 138.5 138.5" enable-background="new 0 0 138.5 138.5" xml:space="preserve">
<path fill="#666666" d="M69.3,138.5C31.1,138.5,0,107.4,0,69.3S31.1,0,69.3,0s69.3,31.1,69.3,69.3S107.4,138.5,69.3,138.5z
	 M73.4,96.8c-0.3,0-0.5,0.1-0.7,0.3c-0.2,0.2-0.3,0.4-0.3,0.7v33c0,0.3,0.1,0.6,0.4,0.8c0.2,0.1,0.4,0.2,0.6,0.2c0.1,0,0.1,0,0.2,0
	c10.5-2.4,20.2-13.7,25.9-30.2c0.1-0.3,0.1-0.6-0.1-0.8c-0.1-0.2-0.4-0.4-0.6-0.5C90.9,98.3,82.3,97.1,73.4,96.8
	C73.4,96.8,73.4,96.8,73.4,96.8z M65.1,96.8c-8.9,0.3-17.4,1.5-25.3,3.5c-0.3,0.1-0.5,0.2-0.6,0.5c-0.1,0.2-0.2,0.5-0.1,0.8
	c5.7,16.5,15.3,27.8,25.9,30.2c0.1,0,0.1,0,0.2,0c0.2,0,0.4-0.1,0.6-0.2c0.2-0.2,0.4-0.5,0.4-0.8v-33c0-0.3-0.1-0.5-0.3-0.7
	C65.6,96.9,65.4,96.8,65.1,96.8C65.1,96.8,65.1,96.8,65.1,96.8z M32,102.7c-0.1,0-0.2,0-0.3,0.1c-4,1.4-7.6,3.1-10.7,4.9
	c-0.3,0.1-0.4,0.4-0.5,0.7c-0.1,0.3,0,0.6,0.2,0.8c6.1,7.4,13.8,13.4,22.5,17.3c0.1,0.1,0.3,0.1,0.4,0.1c0.3,0,0.6-0.1,0.8-0.4
	c0.3-0.4,0.3-0.9,0-1.2c-4.7-5.8-8.5-13.1-11.4-21.6c-0.1-0.3-0.3-0.5-0.5-0.6C32.2,102.8,32.1,102.7,32,102.7z M106.6,102.7
	c-0.1,0-0.3,0-0.4,0.1c-0.2,0.1-0.4,0.3-0.5,0.6c-2.9,8.5-6.7,15.8-11.4,21.6c-0.3,0.4-0.3,0.9,0,1.2c0.2,0.3,0.5,0.4,0.8,0.4
	c0.1,0,0.3,0,0.4-0.1c8.7-4,16.5-10,22.5-17.3c0.2-0.2,0.3-0.5,0.2-0.8c-0.1-0.3-0.2-0.5-0.5-0.7c-3.2-1.9-6.8-3.5-10.7-4.9
	C106.8,102.7,106.7,102.7,106.6,102.7z M111.8,72.4c-0.5,0-1,0.4-1,1c-0.3,7.7-1.2,15.2-3,22.2c-0.1,0.5,0.2,1,0.6,1.2
	c4.8,1.7,9.2,3.7,13,6c0.2,0.1,0.3,0.1,0.5,0.1c0.3,0,0.7-0.2,0.9-0.5c5.4-8.7,8.6-18.7,9.3-28.9c0-0.3-0.1-0.5-0.3-0.7
	c-0.2-0.2-0.5-0.3-0.7-0.3H111.8z M7.4,72.4c-0.3,0-0.5,0.1-0.7,0.3c-0.2,0.2-0.3,0.5-0.3,0.7c0.7,10.2,3.9,20.2,9.3,28.9
	c0.2,0.3,0.5,0.5,0.9,0.5c0.2,0,0.3,0,0.5-0.1c3.8-2.2,8.1-4.3,13-6c0.5-0.2,0.8-0.7,0.6-1.2C29,88.5,28,81,27.7,73.4
	c0-0.5-0.5-1-1-1H7.4z M35,72.4c-0.3,0-0.5,0.1-0.7,0.3S34,73.2,34,73.4c0.3,7,1.2,13.7,2.8,20.2c0.1,0.3,0.2,0.5,0.5,0.6
	c0.2,0.1,0.3,0.1,0.5,0.1c0.1,0,0.2,0,0.3,0c8.5-2.2,17.7-3.5,27.2-3.8c0.5,0,1-0.5,1-1V73.4c0-0.6-0.4-1-1-1H35z M73.4,72.4
	c-0.6,0-1,0.4-1,1v16.2c0,0.5,0.4,1,1,1c9.5,0.3,18.7,1.6,27.2,3.8c0.1,0,0.2,0,0.3,0c0.2,0,0.4,0,0.5-0.1c0.2-0.1,0.4-0.4,0.5-0.6
	c1.6-6.4,2.5-13.2,2.8-20.2c0-0.3-0.1-0.5-0.3-0.7s-0.4-0.3-0.7-0.3H73.4z M122,35.7c-0.2,0-0.3,0-0.5,0.1c-3.8,2.3-8.1,4.3-13,6
	c-0.5,0.2-0.8,0.7-0.6,1.2c1.7,7.1,2.7,14.5,3,22.2c0,0.5,0.5,1,1,1h19.3c0.3,0,0.5-0.1,0.7-0.3c0.2-0.2,0.3-0.5,0.3-0.7
	c-0.7-10.2-3.9-20.2-9.3-28.9C122.6,35.8,122.3,35.7,122,35.7z M100.8,44.2c-0.1,0-0.2,0-0.3,0C92,46.4,82.9,47.7,73.4,48
	c-0.5,0-1,0.5-1,1v16.2c0,0.6,0.4,1,1,1h30.2c0.3,0,0.5-0.1,0.7-0.3s0.3-0.5,0.3-0.7c-0.3-7-1.2-13.7-2.8-20.2
	c-0.1-0.3-0.2-0.5-0.5-0.6C101.2,44.2,101,44.2,100.8,44.2z M37.7,44.1c-0.2,0-0.4,0-0.5,0.1c-0.2,0.1-0.4,0.4-0.5,0.6
	c-1.6,6.4-2.5,13.2-2.8,20.2c0,0.3,0.1,0.5,0.3,0.7s0.4,0.3,0.7,0.3h30.2c0.6,0,1-0.4,1-1V49c0-0.5-0.4-1-1-1
	c-9.5-0.3-18.7-1.6-27.2-3.8C37.9,44.2,37.8,44.1,37.7,44.1z M16.5,35.7c-0.3,0-0.7,0.2-0.9,0.5c-5.4,8.7-8.6,18.7-9.3,28.9
	c0,0.3,0.1,0.5,0.3,0.7c0.2,0.2,0.5,0.3,0.7,0.3h19.3c0.5,0,1-0.4,1-1c0.3-7.7,1.2-15.2,3-22.2c0.1-0.5-0.2-1-0.6-1.2
	c-4.8-1.7-9.2-3.7-13-6C16.9,35.7,16.7,35.7,16.5,35.7z M73.4,6.7c-0.2,0-0.4,0.1-0.6,0.2c-0.2,0.2-0.4,0.5-0.4,0.8v33
	c0,0.3,0.1,0.5,0.3,0.7c0.2,0.2,0.4,0.3,0.7,0.3c0,0,0,0,0,0c8.9-0.3,17.4-1.5,25.3-3.5c0.3-0.1,0.5-0.2,0.6-0.5
	c0.1-0.2,0.2-0.5,0.1-0.8C93.8,20.4,84.1,9.2,73.6,6.8C73.5,6.8,73.5,6.7,73.4,6.7z M65.1,6.7c-0.1,0-0.1,0-0.2,0
	C54.4,9.2,44.7,20.4,39.1,36.9c-0.1,0.3-0.1,0.6,0.1,0.8c0.1,0.2,0.4,0.4,0.6,0.5c7.9,2,16.4,3.2,25.3,3.5c0,0,0,0,0,0
	c0.3,0,0.5-0.1,0.7-0.3c0.2-0.2,0.3-0.4,0.3-0.7v-33c0-0.3-0.1-0.6-0.4-0.8C65.6,6.8,65.4,6.7,65.1,6.7z M95,11.9
	c-0.3,0-0.6,0.1-0.8,0.4c-0.3,0.4-0.3,0.9,0,1.2c4.7,5.8,8.5,13.1,11.4,21.6c0.1,0.3,0.3,0.5,0.5,0.6c0.1,0.1,0.3,0.1,0.4,0.1
	c0.1,0,0.2,0,0.3-0.1c3.9-1.4,7.5-3.1,10.7-4.9c0.3-0.1,0.4-0.4,0.5-0.7c0.1-0.3,0-0.6-0.2-0.8c-6.1-7.4-13.8-13.4-22.5-17.3
	C95.3,11.9,95.1,11.9,95,11.9z M43.5,11.9c-0.1,0-0.3,0-0.4,0.1c-8.7,4-16.5,10-22.5,17.3c-0.2,0.2-0.3,0.5-0.2,0.8
	c0.1,0.3,0.2,0.5,0.5,0.7c3.2,1.8,6.8,3.5,10.7,4.9c0.1,0,0.2,0.1,0.3,0.1c0.1,0,0.3,0,0.4-0.1c0.2-0.1,0.4-0.3,0.5-0.6
	c2.9-8.5,6.7-15.8,11.4-21.6c0.3-0.4,0.3-0.9,0-1.2C44.1,12,43.8,11.9,43.5,11.9z"/>
</svg>
