<svg id="Layer_1" data-name="Layer 1" xmlns="http://www.w3.org/2000/svg" viewBox="0 0 241.08 56.94"><defs><style>.cls-1{fill:#d22630;}.cls-2{fill:#fff;}</style></defs><title>logo</title><path class="cls-1" d="M96.11,41.29v6.38l-5.54-6.38h-.18v8.33h.86V43.31l5.49,6.31h.19V41.29Z"/><path class="cls-1" d="M115.38,41.29v.82h4.77v-.82Zm4.73,4.24v-.81h-4.73v4.9h4.73V48.8h-3.9V45.53Z"/><path class="cls-1" d="M139.59,41.29v.82h1.85v7.51h.85V42.11h1.85v-.82Z"/><path class="cls-1" d="M170.15,41.29l-1.73,6-2.36-6h-.18l-2.38,6-1.7-6H161l2.35,8.33h.16l2.52-6.3,2.47,6.3h.15L171,41.29Z"/><path class="cls-1" d="M193.18,42.35a4.37,4.37,0,0,0-6.91.92,4.38,4.38,0,0,0-.58,2.22A4.17,4.17,0,0,0,187,48.56a4.28,4.28,0,0,0,3.13,1.26,4.38,4.38,0,0,0,3.09-7.47Zm0,4.91a3.4,3.4,0,0,1-1.29,1.29,3.6,3.6,0,0,1-1.79.47,3.52,3.52,0,0,1-3.51-3.53,3.51,3.51,0,0,1,1.75-3.12,3.45,3.45,0,0,1,1.76-.48,3.49,3.49,0,0,1,1.77.48,3.53,3.53,0,0,1,1.31,1.29,3.58,3.58,0,0,1,.46,1.79A3.69,3.69,0,0,1,193.14,47.26Z"/><path class="cls-1" d="M213.85,45.75a4.09,4.09,0,0,0,1.64-.27,1.93,1.93,0,0,0,.91-.78,2.23,2.23,0,0,0,.32-1.19,2.05,2.05,0,0,0-1.67-2.1,9.55,9.55,0,0,0-1.88-.12h-1.66v.82h2.3a3.61,3.61,0,0,1,1.23.15,1.22,1.22,0,0,1,.59.49,1.34,1.34,0,0,1,.23.76,1.47,1.47,0,0,1-.22.77,1.22,1.22,0,0,1-.63.51,3.43,3.43,0,0,1-1.23.16h-2.27v4.67h.84V45.75h.46l3,3.87h1Z"/><path class="cls-1" d="M236.77,45l4-3.74h-1.12l-3.32,3.13V41.29h-.85v8.33h.85V45.74L240,49.62h1.11Z"/><rect class="cls-2" x="90.39" y="7.12" width="15.32" height="3.25"/><polygon class="cls-2" points="204.97 7.12 208.57 7.12 197.98 31.45 196.84 31.45 196.71 31.16 186.4 7.12 189.99 7.12 197.42 24.44 204.97 7.12"/><rect class="cls-2" x="175.93" y="7.12" width="3.3" height="24.33"/><polygon class="cls-2" points="241.08 31.45 237.81 31.45 235.66 15.88 227.96 31.45 226.77 31.45 218.97 15.75 216.84 31.45 213.6 31.45 217.09 7.12 218.18 7.12 227.38 25.68 236.49 7.12 237.58 7.12 241.08 31.45"/><polygon class="cls-2" points="144.25 7.12 148.12 7.12 139.32 19.95 139.32 31.45 136.05 31.45 136.05 19.96 127.1 7.12 130.96 7.12 137.65 16.41 144.25 7.12"/><polygon class="cls-2" points="90.39 16.73 105.61 16.73 105.61 19.98 93.69 19.98 93.69 28.2 105.61 28.2 105.61 31.45 90.39 31.45 90.39 16.73"/><path class="cls-2" d="M166.15,22.06a5.82,5.82,0,0,1,1.34,3.69,5.53,5.53,0,0,1-.8,2.9,5.68,5.68,0,0,1-2.25,2.06,6.69,6.69,0,0,1-3.1.74h-8.85V28.19h8.89a2.8,2.8,0,0,0,2-.7,2.11,2.11,0,0,0,.74-1.65,2.8,2.8,0,0,0-.27-1.2,4.76,4.76,0,0,0-1.06-1.34c-.28-.26-1.28-1-3-2.18-.71-.49-1.35-1-1.91-1.45l0,0a20.11,20.11,0,0,1-3.73-3.14,5.82,5.82,0,0,1-1.34-3.69,5.5,5.5,0,0,1,.8-2.9,5.61,5.61,0,0,1,2.25-2.06A6.7,6.7,0,0,1,159,7.12h7.88v3.26h-7.93a2.83,2.83,0,0,0-2,.69,2.17,2.17,0,0,0-.74,1.66,2.8,2.8,0,0,0,.27,1.2,4.76,4.76,0,0,0,1.06,1.34c.28.26,1.28,1,3,2.18.71.49,1.35,1,1.92,1.45h0c1,.73,1.82,1.35,2.44,1.87A8.26,8.26,0,0,1,166.15,22.06Z"/><polygon class="cls-2" points="116.73 28.23 126.68 28.23 126.68 31.45 113.43 31.45 113.43 7.12 116.73 7.12 116.73 28.23"/><polygon class="cls-2" points="35.29 21.15 31.3 21.15 24.45 0.07 28.44 0.07 35.29 21.15"/><polygon class="cls-2" points="40.69 21.15 36.7 21.15 29.86 0.07 33.84 0.07 40.69 21.15"/><polygon class="cls-2" points="46.09 21.15 42.1 21.15 35.26 0.07 39.24 0.07 46.09 21.15"/><polygon class="cls-2" points="23.4 17.36 22.17 21.15 0 21.15 1.23 17.36 23.4 17.36"/><polygon class="cls-2" points="25.07 12.23 23.83 16.02 1.67 16.02 2.9 12.23 25.07 12.23"/><polygon class="cls-2" points="26.73 7.09 25.5 10.88 3.34 10.88 4.57 7.09 26.73 7.09"/><polygon class="cls-2" points="16.12 27.5 19.34 29.85 12.49 50.93 9.27 48.58 16.12 27.5"/><polygon class="cls-2" points="11.75 24.33 14.97 26.67 8.12 47.75 4.9 45.41 11.75 24.33"/><polygon class="cls-2" points="7.38 21.15 10.6 23.5 3.75 44.58 0.53 42.24 7.38 21.15"/><polygon class="cls-2" points="23.51 37.56 26.73 35.22 44.67 48.25 41.44 50.59 23.51 37.56"/><polygon class="cls-2" points="19.14 40.73 22.37 38.39 40.3 51.42 37.07 53.77 19.14 40.73"/><polygon class="cls-2" points="14.77 43.91 18 41.57 35.93 54.59 32.71 56.94 14.77 43.91"/><polygon class="cls-1" points="35.36 33.64 34.13 29.85 52.06 16.82 53.29 20.61 35.36 33.64"/><polygon class="cls-1" points="37.03 38.77 35.8 34.98 53.73 21.95 54.96 25.74 37.03 38.77"/><polygon class="cls-1" points="38.7 43.91 37.47 40.12 55.4 27.09 56.63 30.88 38.7 43.91"/><path class="cls-2" d="M57.81,7.17v.42h.95v3.85h.44V7.59h.95V7.17Z"/><path class="cls-2" d="M64.77,7.17H64.7L63,10.67l-1.74-3.5h-.07l-.61,4.27H61l.42-3.08,1.53,3.08H63l1.51-3.06L65,11.44h.42Z"/><path class="cls-2" d="M72.75,0V56.94h.83V0Z"/></svg>